<?xml version="1.0" encoding="UTF-8"?>
<svg version="1.1" xmlns="http://www.w3.org/2000/svg" width="500" height="185">
<path d="M0 0 C165 0 330 0 500 0 C500 61.05 500 122.1 500 185 C335 185 170 185 0 185 C0 123.95 0 62.9 0 0 Z " fill="#555555" transform="translate(0,0)"/>
<path d="M0 0 C0.79172607 0.00870117 1.58345215 0.01740234 2.39916992 0.02636719 C10.55376119 0.23029465 18.25806029 1.2602653 24.1875 7.375 C26.7394064 11.65823513 26.70628056 15.51036921 26.1875 20.375 C24.15189201 26.73627496 18.92301012 31.3808555 13.109375 34.484375 C11.49533644 35.17985503 9.84416914 35.78826301 8.1875 36.375 C11.19532432 39.53123298 14.67199341 41.76613463 18.3125 44.125 C24.15324183 47.95681977 29.77689629 51.94680943 35.1875 56.375 C35.1875 55.055 35.1875 53.735 35.1875 52.375 C36.5075 52.375 37.8275 52.375 39.1875 52.375 C39.043125 53.48875 38.89875 54.6025 38.75 55.75 C38.70374099 60.95876425 41.34540183 64.01232764 44.4609375 67.98046875 C49.87446403 75.48836867 49.43494496 85.50021559 48.1875 94.375 C45.5102075 103.74776605 38.78425422 111.71373064 30.5625 116.75 C23.80589791 120.00317878 16.57643135 120.05348049 9.1875 119.375 C6.44934258 118.37977518 5.36358416 117.43655342 3.1875 115.375 C2.259375 114.50875 2.259375 114.50875 1.3125 113.625 C-0.37292615 110.25414769 -0.34943592 107.02471306 0.1875 103.375 C1.43738145 100.50027265 2.44218584 98.93398562 4.9375 97.0625 C9.34462437 95.71587866 12.93177005 95.74713503 17.0625 97.8125 C19.1875 99.375 19.1875 99.375 20.1875 100.375 C20.25929964 101.89428038 20.27142007 103.41667482 20.25 104.9375 C20.24097656 105.76378906 20.23195313 106.59007812 20.22265625 107.44140625 C20.21105469 108.07949219 20.19945312 108.71757812 20.1875 109.375 C18.5375 109.375 16.8875 109.375 15.1875 109.375 C15.5175 111.355 15.8475 113.335 16.1875 115.375 C22.05003712 115.73696378 22.05003712 115.73696378 27.1875 113.375 C32.140556 106.58747882 31.76305281 98.46200472 31.1875 90.375 C30.45188009 87.4641114 29.45821073 85.11973517 28.1875 82.375 C27.8575 81.385 27.5275 80.395 27.1875 79.375 C26.24390625 80.08076172 26.24390625 80.08076172 25.28125 80.80078125 C24.4253125 81.42339844 23.569375 82.04601562 22.6875 82.6875 C21.43453125 83.60982422 21.43453125 83.60982422 20.15625 84.55078125 C13.15044469 88.85566425 7.04057064 89.87846377 -1.125 89.75 C-2.05344727 89.73984863 -2.98189453 89.72969727 -3.93847656 89.71923828 C-14.68207862 89.47617889 -23.47295352 87.52831788 -31.8125 80.375 C-33.8125 77.625 -33.8125 77.625 -34.8125 75.375 C-35.1425 74.715 -35.4725 74.055 -35.8125 73.375 C-37.1958167 57.91337154 -37.1958167 57.91337154 -33.3125 53.125 C-29.16330652 49.38778318 -24.41911487 46.59221791 -18.8125 46.125 C-18.1525 46.2075 -17.4925 46.29 -16.8125 46.375 C-16.8125 45.715 -16.8125 45.055 -16.8125 44.375 C-17.41707031 44.12621094 -18.02164062 43.87742188 -18.64453125 43.62109375 C-21.15693848 42.17702545 -22.03829242 40.91364187 -23.5 38.4375 C-23.91636719 37.74785156 -24.33273437 37.05820313 -24.76171875 36.34765625 C-28.17952757 29.93132371 -27.60347675 21.09713118 -26.421875 14.04296875 C-24.22563462 7.80620921 -18.14777576 4.5724318 -12.59765625 1.7265625 C-8.41391614 -0.00016691 -4.47880173 -0.08164853 0 0 Z " fill="#D6AE7E" transform="translate(286.8125,35.625)"/>
<path d="M0 0 C3.53665378 0.63863316 5.89975663 2.07968925 8.8515625 4.09765625 C9.78613281 4.73509766 10.72070312 5.37253906 11.68359375 6.02929688 C12.65425781 6.70025391 13.62492187 7.37121094 14.625 8.0625 C15.57246094 8.70638672 16.51992188 9.35027344 17.49609375 10.01367188 C23.12481764 13.87523827 28.53416632 17.91905306 33.82177734 22.23608398 C35.8465701 23.87575308 37.90541112 25.45095767 40 27 C38.55366256 30.60411654 36.80863332 32.11402568 33.5625 34.1875 C32.78003906 34.69667969 31.99757813 35.20585938 31.19140625 35.73046875 C27.02170664 38.14607013 23.43655785 38.22324965 18.6875 38.3125 C17.39199219 38.34988281 16.09648437 38.38726562 14.76171875 38.42578125 C9.23242236 37.7999315 5.66160038 35.04588469 2 31 C-0.95122188 24.74589196 -1.41183013 19.53999454 -1.25 12.6875 C-1.24484375 11.79482422 -1.2396875 10.90214844 -1.234375 9.98242188 C-1.15594506 3.46783519 -1.15594506 3.46783519 0 0 Z " fill="#605F5C" transform="translate(271,84)"/>
<path d="M0 0 C4.62746206 -0.09193633 9.25174608 -0.17153193 13.87939453 -0.21972656 C15.45274604 -0.2398188 17.02602308 -0.26709799 18.59912109 -0.30175781 C20.86314272 -0.35038494 23.12617573 -0.37299135 25.390625 -0.390625 C26.09181458 -0.41127014 26.79300415 -0.43191528 27.51544189 -0.45318604 C30.77353623 -0.45467661 32.71498614 -0.18963073 35.45117188 1.63085938 C37.46390816 4.70960983 37.45973355 6.63412177 37.390625 10.296875 C37.37773437 11.50214844 37.36484375 12.70742187 37.3515625 13.94921875 C37.31804687 15.20347656 37.28453125 16.45773438 37.25 17.75 C37.23195312 19.01972656 37.21390625 20.28945312 37.1953125 21.59765625 C37.14817153 24.73253077 37.08237664 27.8658856 37 31 C35.35 31 33.7 31 32 31 C31.505 26.05 31.505 26.05 31 21 C18.13 20.505 18.13 20.505 5 20 C5 23.63 5 27.26 5 31 C3.35 31 1.7 31 0 31 C0 20.77 0 10.54 0 0 Z " fill="#D5AC77" transform="translate(205,76)"/>
<path d="M0 0 C4.46736264 -0.11507231 8.92955031 -0.21449895 13.3972168 -0.2746582 C14.91529801 -0.29974109 16.43325918 -0.3338166 17.95092773 -0.37719727 C20.13815965 -0.43813293 22.32379039 -0.46626895 24.51171875 -0.48828125 C25.82615967 -0.51446533 27.14060059 -0.54064941 28.49487305 -0.56762695 C32.86572536 0.14019722 34.29373122 1.57295175 37 5 C37.6640625 7.5 37.6640625 7.5 37.625 10 C37.63789063 10.825 37.65078125 11.65 37.6640625 12.5 C36.60432002 16.48961873 35.4826515 17.68778132 32 20 C27.3818695 20.61713065 22.83588405 20.46880883 18.1875 20.3125 C16.92228516 20.28994141 15.65707031 20.26738281 14.35351562 20.24414062 C11.23447381 20.18529078 8.11784098 20.1031137 5 20 C5 23.63 5 27.26 5 31 C3.35 31 1.7 31 0 31 C0 20.77 0 10.54 0 0 Z " fill="#D5AC77" transform="translate(119,76)"/>
<path d="M0 0 C5.60787361 1.12157472 6.83732404 2.65720157 9.9375 7 C10.3691748 7.58289795 10.80084961 8.1657959 11.24560547 8.76635742 C14.65280884 13.40425845 17.91260521 18.14300088 21 23 C26.14697365 18.26932569 29.73969586 12.72077159 33.5390625 6.88671875 C34.04179688 6.14550781 34.54453125 5.40429688 35.0625 4.640625 C35.72958984 3.62790527 35.72958984 3.62790527 36.41015625 2.59472656 C38 1 38 1 43 0 C43 10.23 43 20.46 43 31 C41.35 31 39.7 31 38 31 C37.67 24.73 37.34 18.46 37 12 C36.15695313 13.20398438 35.31390625 14.40796875 34.4453125 15.6484375 C33.33864547 17.22403124 32.23186894 18.79954809 31.125 20.375 C30.56941406 21.1690625 30.01382813 21.963125 29.44140625 22.78125 C28.90644531 23.54179688 28.37148437 24.30234375 27.8203125 25.0859375 C27.08192139 26.1385376 27.08192139 26.1385376 26.32861328 27.21240234 C25 29 25 29 23 31 C21.02954102 30.8137207 21.02954102 30.8137207 19 30 C17.16447942 27.75851911 15.54302523 25.58254888 13.9375 23.1875 C13.07184957 21.93082768 12.20596998 20.67431319 11.33984375 19.41796875 C10.96206787 18.85875732 10.58429199 18.2995459 10.19506836 17.72338867 C8.84717403 15.77961215 7.41923608 13.89231478 6 12 C5.67 18.27 5.34 24.54 5 31 C3.35 31 1.7 31 0 31 C0 20.77 0 10.54 0 0 Z " fill="#D5AC77" transform="translate(67,76)"/>
<path d="M0 0 C11.55 0 23.1 0 35 0 C35 1.65 35 3.3 35 5 C25.1 5 15.2 5 5 5 C5 7.64 5 10.28 5 13 C13.58 13 22.16 13 31 13 C31 14.65 31 16.3 31 18 C22.42 18 13.84 18 5 18 C5 20.64 5 23.28 5 26 C14.9 26 24.8 26 35 26 C35 27.65 35 29.3 35 31 C23.45 31 11.9 31 0 31 C0 20.77 0 10.54 0 0 Z " fill="#D7AD78" transform="translate(163,76)"/>
<path d="M0 0 C0.94488281 -0.06058594 1.88976562 -0.12117188 2.86328125 -0.18359375 C6.1874891 0.54745611 7.71941908 1.85863301 9.7434082 4.58129883 C11.46883037 7.97369208 11.29108398 11.27125181 11.125 15 C11.11919922 15.74185547 11.11339844 16.48371094 11.10742188 17.24804688 C11.01591743 21.35842633 10.66954664 24.745853 8.6875 28.4375 C6.0625 30.75 6.0625 30.75 3.6875 32.4375 C-8.9974711 24.28287572 -8.9974711 24.28287572 -11.3125 16.4375 C-11.94776004 11.42600412 -12.11902346 7.75482165 -9.4375 3.375 C-6.26157672 0.47930525 -4.23142849 0.18895418 0 0 Z " fill="#5F5D5B" transform="translate(287.3125,38.5625)"/>
<path d="M0 0 C4.846875 -0.061875 9.69375 -0.12375 14.6875 -0.1875 C16.96853638 -0.22846802 16.96853638 -0.22846802 19.2956543 -0.27026367 C21.1041687 -0.28150269 21.1041687 -0.28150269 22.94921875 -0.29296875 C24.79519653 -0.31653442 24.79519653 -0.31653442 26.6784668 -0.34057617 C30.30742508 0.03152209 32.12172368 0.80051691 35 3 C37.76220704 7.14331056 37.36768911 10.50594895 37.375 15.375 C37.39949219 16.22578125 37.42398438 17.0765625 37.44921875 17.953125 C37.46864239 22.10978374 37.35443965 24.41328925 35.1640625 28.0390625 C31.4014205 31.44853233 28.02556521 31.11825133 23.14453125 31.09765625 C21.93385986 31.09515869 20.72318848 31.09266113 19.47583008 31.09008789 C17.93693115 31.08098389 16.39803223 31.07187988 14.8125 31.0625 C9.924375 31.041875 5.03625 31.02125 0 31 C0 20.77 0 10.54 0 0 Z M5 5 C5 11.93 5 18.86 5 26 C9.12517186 26.05372872 13.24965079 26.09354309 17.375 26.125 C18.550625 26.14175781 19.72625 26.15851563 20.9375 26.17578125 C22.05898438 26.18222656 23.18046875 26.18867187 24.3359375 26.1953125 C25.37282715 26.20578613 26.4097168 26.21625977 27.47802734 26.22705078 C30.17108623 26.25615026 30.17108623 26.25615026 32 24 C32.19856972 21.12657939 32.27828946 18.37138012 32.25 15.5 C32.25773437 14.71496094 32.26546875 13.92992188 32.2734375 13.12109375 C32.44419897 8.58467749 32.44419897 8.58467749 30 5 C27.3784358 4.72172748 27.3784358 4.72172748 24.3359375 4.8046875 C22.65371094 4.81435547 22.65371094 4.81435547 20.9375 4.82421875 C19.761875 4.84097656 18.58625 4.85773438 17.375 4.875 C16.19164062 4.88402344 15.00828125 4.89304687 13.7890625 4.90234375 C10.85928943 4.92597095 7.92961986 4.96184287 5 5 Z " fill="#D5AC77" transform="translate(435,76)"/>
<path d="M0 0 C3.41106014 0.2637798 4.68575178 0.64397289 6.98876953 3.25317383 C7.61380371 4.22794678 8.23883789 5.20271973 8.8828125 6.20703125 C9.57503906 7.26857422 10.26726562 8.33011719 10.98046875 9.42382812 C11.69579703 10.55307864 12.4106363 11.68263905 13.125 12.8125 C14.5436398 15.0069185 15.96288657 17.20094474 17.3828125 19.39453125 C18.31697998 20.86176636 18.31697998 20.86176636 19.27001953 22.35864258 C20.93464468 24.97683583 20.93464468 24.97683583 22.72607422 27.2253418 C24 29 24 29 24 31 C21.25 31.375 21.25 31.375 18 31 C17.525625 30.0203125 17.05125 29.040625 16.5625 28.03125 C14.36149316 24.81232177 14.36149316 24.81232177 11.43261719 24.41259766 C8.19407885 24.18362569 4.99656311 24.11746737 1.75 24.125 C0.62335938 24.104375 -0.50328125 24.08375 -1.6640625 24.0625 C-4.44344554 24.01539181 -7.22029919 23.99555958 -10 24 C-10.28875 24.78375 -10.5775 25.5675 -10.875 26.375 C-12 29 -12 29 -14 31 C-17.125 31.125 -17.125 31.125 -20 31 C-13.43926784 20.59825738 -6.71245739 10.30414449 0 0 Z " fill="#D4AB77" transform="translate(360,76)"/>
<path d="M0 0 C1.32 0 2.64 0 4 0 C5.42871094 1.46191406 5.42871094 1.46191406 6.734375 3.515625 C7.22260742 4.267229 7.71083984 5.01883301 8.21386719 5.79321289 C8.72079102 6.60395264 9.22771484 7.41469238 9.75 8.25 C10.81237884 9.89981761 11.87487927 11.54955693 12.9375 13.19921875 C13.45570312 14.01438965 13.97390625 14.82956055 14.5078125 15.66943359 C16.53608308 18.83727898 18.6409561 21.94789409 20.75 25.0625 C24 29.87804878 24 29.87804878 24 31 C21.25 31.375 21.25 31.375 18 31 C17.52046875 30.01773438 17.0409375 29.03546875 16.546875 28.0234375 C14.36514153 24.82345026 14.36514153 24.82345026 11.49707031 24.40966797 C8.31236111 24.19019387 5.19135584 24.18225896 2 24.25 C0.3603125 24.21519531 0.3603125 24.21519531 -1.3125 24.1796875 C-4.3436785 24.20197558 -7.0486778 24.30391172 -10 25 C-12.613494 27.85357522 -12.613494 27.85357522 -14 31 C-17.25 31.375 -17.25 31.375 -20 31 C-16.40882967 24.14270415 -12.24685828 17.85530272 -7.75 11.5625 C-6.4936914 9.79374973 -5.23842844 8.02425615 -3.984375 6.25390625 C-3.43491211 5.48377197 -2.88544922 4.7136377 -2.31933594 3.92016602 C-0.96260022 2.04013662 -0.96260022 2.04013662 0 0 Z " fill="#D5AB77" transform="translate(38,76)"/>
<path d="M0 0 C5.18600821 1.03720164 7.37270077 2.62700068 11.125 6 C12.27013971 6.99949317 13.41598565 7.99817772 14.5625 8.99609375 C15.13484375 9.49866699 15.7071875 10.00124023 16.296875 10.51904297 C18.86512374 12.75227073 21.49038057 14.90785778 24.125 17.0625 C24.99382812 17.77535156 25.86265625 18.48820312 26.7578125 19.22265625 C29.07414552 21.10877391 29.07414552 21.10877391 32 23 C32 15.41 32 7.82 32 0 C33.65 0 35.3 0 37 0 C37 10.23 37 20.46 37 31 C30.25519708 29.87586618 30.25519708 29.87586618 27.7734375 27.59375 C27.22187988 27.10100586 26.67032227 26.60826172 26.10205078 26.10058594 C25.53212402 25.57239258 24.96219727 25.04419922 24.375 24.5 C23.1537648 23.40840412 21.92975489 22.31990532 20.703125 21.234375 C20.09017578 20.69103516 19.47722656 20.14769531 18.84570312 19.58789062 C14.43472234 15.79304684 9.69310044 12.43397593 5 9 C5 16.26 5 23.52 5 31 C3.35 31 1.7 31 0 31 C0 20.77 0 10.54 0 0 Z " fill="#D2A976" transform="translate(390,76)"/>
<path d="M0 0 C4.47915328 -0.02886338 8.95828291 -0.04675187 13.4375 -0.0625 C14.71689453 -0.07087891 15.99628906 -0.07925781 17.31445312 -0.08789062 C19.13686523 -0.09272461 19.13686523 -0.09272461 20.99609375 -0.09765625 C22.12200928 -0.10289307 23.2479248 -0.10812988 24.40795898 -0.11352539 C27 0 27 0 28 1 C28.1875 4.4375 28.1875 4.4375 28 8 C26 10 26 10 23.38623047 10.22705078 C22.30744629 10.21657715 21.22866211 10.20610352 20.1171875 10.1953125 C18.95058594 10.18886719 17.78398437 10.18242188 16.58203125 10.17578125 C15.35871094 10.15902344 14.13539063 10.14226562 12.875 10.125 C11.64394531 10.11597656 10.41289062 10.10695313 9.14453125 10.09765625 C6.09616185 10.07402548 3.04817618 10.04108054 0 10 C0 6.7 0 3.4 0 0 Z " fill="#5E5C59" transform="translate(123,81)"/>
<path d="M0 0 C4.31248609 -0.02886537 8.62494762 -0.04675255 12.9375 -0.0625 C14.16919922 -0.07087891 15.40089844 -0.07925781 16.66992188 -0.08789062 C17.83974609 -0.09111328 19.00957031 -0.09433594 20.21484375 -0.09765625 C21.84087524 -0.10551147 21.84087524 -0.10551147 23.49975586 -0.11352539 C26 0 26 0 27 1 C27.1328125 2.8125 27.1328125 2.8125 27.125 5 C27.12886719 6.0828125 27.12886719 6.0828125 27.1328125 7.1875 C27 9 27 9 26 10 C24.07332493 10.08748207 22.14348139 10.10697334 20.21484375 10.09765625 C19.04501953 10.09443359 17.87519531 10.09121094 16.66992188 10.08789062 C14.82237305 10.07532227 14.82237305 10.07532227 12.9375 10.0625 C11.08415039 10.05573242 11.08415039 10.05573242 9.19335938 10.04882812 C6.12885883 10.03699608 3.06445279 10.02051173 0 10 C0 6.7 0 3.4 0 0 Z " fill="#605F5D" transform="translate(210,81)"/>
<path d="M0 0 C3.21880117 3.7935871 5.6163187 7.65829477 8 12 C2.72 12 -2.56 12 -8 12 C-1.125 1.125 -1.125 1.125 0 0 Z " fill="#5C5B59" transform="translate(362,83)"/>
<path d="M0 0 C5.04465762 1.68155254 6.43984533 6.50550624 9 11 C3.72 11 -1.56 11 -7 11 C-2.25 2.25 -2.25 2.25 0 0 Z " fill="#545351" transform="translate(39,84)"/>
<path d="M0 0 C1.32 0.66 2.64 1.32 4 2 C2.42065361 2.98558449 0.83634827 3.96322541 -0.75 4.9375 C-1.63171875 5.48277344 -2.5134375 6.02804688 -3.421875 6.58984375 C-7.13193262 8.61913284 -10.05810625 9.1323649 -14.25 9.0625 C-16.10625 9.0315625 -16.10625 9.0315625 -18 9 C-18.33 8.01 -18.66 7.02 -19 6 C-17.69675781 5.85304688 -17.69675781 5.85304688 -16.3671875 5.703125 C-7.46057877 4.57863906 -7.46057877 4.57863906 0 0 Z " fill="#C6A985" transform="translate(306,116)"/>
<path d="M0 0 C-1.0828125 0.804375 -1.0828125 0.804375 -2.1875 1.625 C-4.39057313 3.48537287 -5.88916021 5.02348209 -7.625 7.25 C-8.40875 8.1575 -9.1925 9.065 -10 10 C-10.99 10 -11.98 10 -13 10 C-13 14.95 -13 19.9 -13 25 C-13.33 25 -13.66 25 -14 25 C-15.03302769 9.0645914 -15.03302769 9.0645914 -11.3125 4.6875 C-9.65625 3.19921875 -9.65625 3.19921875 -8 2 C-7.113125 1.34 -6.22625 0.68 -5.3125 0 C-3 -1 -3 -1 0 0 Z " fill="#BEA27E" transform="translate(265,84)"/>
<path d="M0 0 C0.33 0.66 0.66 1.32 1 2 C1.66 2 2.32 2 3 2 C3.33 2.99 3.66 3.98 4 5 C-1.12181749 9.17832479 -5.47603393 9.74213573 -12 10 C-12 9.01 -12 8.02 -12 7 C-10.1128125 6.5978125 -10.1128125 6.5978125 -8.1875 6.1875 C-5.0000104 5.3934434 -2.9671546 4.77715943 -1 2 C-0.67 1.34 -0.34 0.68 0 0 Z " fill="#C4A57D" transform="translate(316,145)"/>
<path d="M0 0 C0 0.33 0 0.66 0 1 C-1.36125 1.4021875 -1.36125 1.4021875 -2.75 1.8125 C-5.74480303 2.90675495 -7.50594178 4.10795583 -10 6 C-10.99 6 -11.98 6 -13 6 C-12.06896676 3.67241689 -11.34617872 2.25642868 -9.3125 0.75 C-6.16454282 -0.27095909 -3.28456632 -0.12632947 0 0 Z " fill="#BA9E77" transform="translate(301,132)"/>
<path d="M0 0 C0.33 0.33 0.66 0.66 1 1 C3.32817964 1.36760731 5.6618385 1.70241581 8 2 C8 2.33 8 2.66 8 3 C2.555 3.495 2.555 3.495 -3 4 C-3 3.01 -3 2.02 -3 1 C-4.98 1.33 -6.96 1.66 -9 2 C-5.55892734 -0.29404844 -4.03160191 -0.26293056 0 0 Z " fill="#B59879" transform="translate(284,36)"/>
<path d="M0 0 C0.99 0.33 1.98 0.66 3 1 C2.34 3.64 1.68 6.28 1 9 C0.34 9 -0.32 9 -1 9 C-1.09765625 2.84765625 -1.09765625 2.84765625 -1 1 C-0.67 0.67 -0.34 0.34 0 0 Z " fill="#C5A67E" transform="translate(288,138)"/>
<path d="M0 0 C1.32 0 2.64 0 4 0 C3.67 2.64 3.34 5.28 3 8 C0.37613513 4.93882432 0 4.26826873 0 0 Z " fill="#B8A07F" transform="translate(322,88)"/>
<path d="M0 0 C0.66 0.33 1.32 0.66 2 1 C-1.96 4.465 -1.96 4.465 -6 8 C-6 5 -6 5 -4.6875 3.61328125 C-3.125 2.40885417 -1.5625 1.20442708 0 0 Z " fill="#BE9E79" transform="translate(269,40)"/>
</svg>
